<svg xmlns="http://www.w3.org/2000/svg" viewBox="333.000 286.660 133.000 26.680" width="133.0" height="26.7" role="img" aria-label="Vänster"><path fill="#FFFFFF" d="M 353.105469 294.464844 L 347.214844 294.464844 L 343.308594 305.84375 L 339.074219 294.464844 L 333 294.464844 L 340.511719 312.765625 L 346.144531 312.765625 Z M 358.609375 289.492188 C 358.609375 291.078125 359.824219 292.292969 361.410156 292.292969 C 362.992188 292.292969 364.242188 291.078125 364.242188 289.492188 C 364.242188 287.910156 362.992188 286.660156 361.410156 286.660156 C 359.824219 286.660156 358.609375 287.910156 358.609375 289.492188 M 367.761719 289.492188 C 367.761719 291.078125 368.976562 292.292969 370.558594 292.292969 C 372.144531 292.292969 373.394531 291.078125 373.394531 289.492188 C 373.394531 287.910156 372.144531 286.660156 370.558594 286.660156 C 368.976562 286.660156 367.761719 287.910156 367.761719 289.492188 M 384.808594 302.269531 C 384.808594 300.429688 385.988281 299.066406 387.828125 299.066406 C 389.851562 299.066406 390.8125 300.429688 390.8125 302.234375 L 390.8125 312.765625 L 396.40625 312.765625 L 396.40625 301.277344 C 396.40625 297.261719 394.347656 293.984375 389.742188 293.984375 C 387.863281 293.984375 385.617188 294.832031 384.625 296.5625 L 384.625 294.464844 L 379.210938 294.464844 L 379.210938 312.765625 L 384.808594 312.765625 Z M 399.980469 307.574219 C 400.125 309.597656 401.96875 313.316406 407.710938 313.316406 C 412.609375 313.316406 415 310.261719 415 307.132812 C 415 304.445312 413.160156 302.160156 409.367188 301.386719 L 406.9375 300.910156 C 406.128906 300.761719 405.5 300.320312 405.5 299.546875 C 405.5 298.589844 406.421875 297.964844 407.492188 297.964844 C 409.183594 297.964844 409.957031 298.992188 410.105469 300.210938 L 414.746094 299.363281 C 414.558594 297.226562 412.71875 293.914062 407.417969 293.914062 C 403.328125 293.914062 400.382812 296.636719 400.382812 299.988281 C 400.382812 302.566406 401.929688 304.773438 405.832031 305.621094 L 407.933594 306.101562 C 409.292969 306.394531 409.738281 306.949219 409.738281 307.609375 C 409.738281 308.421875 409.035156 309.195312 407.601562 309.195312 C 405.6875 309.195312 404.804688 307.980469 404.730469 306.726562 Z M 425.71875 289.125 L 420.707031 289.125 L 420.707031 291.480469 C 420.707031 293.175781 419.789062 294.464844 417.875 294.464844 L 416.953125 294.464844 L 416.953125 299.363281 L 420.195312 299.363281 L 420.195312 307.203125 C 420.195312 310.851562 422.515625 313.097656 426.304688 313.097656 C 428.074219 313.097656 429.078125 312.640625 429.300781 312.53125 L 429.300781 307.890625 C 428.96875 307.964844 428.332031 308.125 427.742188 308.125 C 426.527344 308.125 425.71875 307.722656 425.71875 306.210938 L 425.71875 299.363281 L 429.289062 299.363281 L 429.289062 294.464844 L 425.71875 294.464844 Z M 466 294.464844 C 465.632812 294.355469 465.078125 294.28125 464.527344 294.28125 C 463.054688 294.28125 460.734375 294.871094 459.777344 296.933594 L 459.777344 294.464844 L 454.363281 294.464844 L 454.363281 312.765625 L 459.960938 312.765625 L 459.960938 304.773438 C 459.960938 301.128906 461.988281 299.804688 464.234375 299.804688 C 464.785156 299.804688 465.375 299.839844 466 299.988281 Z M 466 294.464844 "/><path fill="#FFFFFF" d="M 374.175781 312.714844 L 374.175781 294.472656 L 368.828125 294.472656 L 368.828125 295.257812 C 367.398438 294.429688 365.746094 293.945312 363.972656 293.945312 C 358.617188 293.945312 354.277344 298.289062 354.277344 303.644531 C 354.277344 309 358.617188 313.339844 363.972656 313.339844 C 365.746094 313.339844 367.398438 312.859375 368.828125 312.03125 L 368.828125 312.714844 Z M 368.269531 303.644531 C 368.269531 306.015625 366.347656 307.941406 363.972656 307.941406 C 361.601562 307.941406 359.675781 306.015625 359.675781 303.644531 C 359.675781 301.273438 361.601562 299.347656 363.972656 299.347656 C 366.347656 299.347656 368.269531 301.273438 368.269531 303.644531 "/><path fill="#FFFFFF" d="M 451.554688 303.621094 C 451.554688 298.269531 447.210938 293.925781 441.855469 293.925781 C 436.5 293.925781 432.160156 298.269531 432.160156 303.621094 C 432.160156 308.976562 436.5 313.320312 441.855469 313.320312 C 445.671875 313.320312 448.964844 311.109375 450.546875 307.902344 L 445.15625 306.472656 C 444.371094 307.480469 443.191406 308.136719 441.855469 308.136719 C 439.902344 308.136719 438.273438 306.753906 437.757812 304.871094 L 451.464844 304.878906 C 451.515625 304.464844 451.554688 304.050781 451.554688 303.621094 M 445.515625 301.304688 L 438.199219 301.304688 C 438.949219 299.992188 440.296875 299.109375 441.855469 299.109375 C 443.414062 299.109375 444.765625 299.992188 445.515625 301.304688 "/></svg>